<?xml version="1.0" encoding="UTF-8" standalone="no"?>
<svg
   xmlns:dc="http://purl.org/dc/elements/1.1/"
   xmlns:cc="http://creativecommons.org/ns#"
   xmlns:rdf="http://www.w3.org/1999/02/22-rdf-syntax-ns#"
   xmlns:svg="http://www.w3.org/2000/svg"
   xmlns="http://www.w3.org/2000/svg"
   xmlns:sodipodi="http://sodipodi.sourceforge.net/DTD/sodipodi-0.dtd"
   xmlns:inkscape="http://www.inkscape.org/namespaces/inkscape"
   version="1.1"
   id="Ebene_1"
   x="0px"
   y="0px"
   width="32px"
   height="32px"
   viewBox="0 0 32 32"
   enable-background="new 0 0 32 32"
   xml:space="preserve"
   inkscape:version="0.48.4 r9939"
   sodipodi:docname="logo.svg"><metadata
   id="metadata19"><rdf:RDF><cc:Work
       rdf:about=""><dc:format>image/svg+xml</dc:format><dc:type
         rdf:resource="http://purl.org/dc/dcmitype/StillImage" /></cc:Work></rdf:RDF></metadata><defs
   id="defs17" /><sodipodi:namedview
   pagecolor="#ffffff"
   bordercolor="#666666"
   borderopacity="1"
   objecttolerance="10"
   gridtolerance="10"
   guidetolerance="10"
   inkscape:pageopacity="0"
   inkscape:pageshadow="2"
   inkscape:window-width="1920"
   inkscape:window-height="1178"
   id="namedview15"
   showgrid="false"
   inkscape:zoom="14.75"
   inkscape:cx="27.221887"
   inkscape:cy="12.699075"
   inkscape:window-x="1272"
   inkscape:window-y="427"
   inkscape:window-maximized="1"
   inkscape:current-layer="Ebene_1" />

<path
   id="path3138"
   d="m 22.526207,30.170801 c -0.202442,-2.032505 -1.341641,-3.390989 -3.418946,-4.07579 0.426777,-1.369599 1.279999,-2.329937 2.560336,-2.879999 2.323873,2.043283 3.301052,3.890526 2.930189,5.541053 -0.145853,0.639999 -0.414989,1.150989 -0.808084,1.53263 -0.494484,0.291705 -0.915537,0.252632 -1.263495,-0.117894 z m -11.570525,1.145262 c -0.561179,0.314611 -1.1058533,0.454736 -1.6336846,0.421053 -0.5952002,-0.179538 -0.8309896,-0.555789 -0.7073684,-1.12842 1.3133478,-1.47099 1.543747,-3.194274 0.6905259,-5.170526 1.3022321,-0.5952 2.5882951,-0.5952 3.8568431,0 0.02256,3.098946 -0.713095,5.05802 -2.206316,5.877893 z"
   inkscape:connector-curvature="0"
   style="fill:#6fc4a9" /><path
   id="path3140"
   d="m 15.806208,3.0381726 c 1.99882,0 3.705263,0.7073685 5.119999,2.1221048 1.414737,1.4147363 2.122105,3.1215152 2.122105,5.1199996 v 13.608419 c 0,1.223747 -0.707368,2.267958 -2.122105,3.132632 -1.414736,0.853221 -3.121515,1.279999 -5.119999,1.279999 -1.998484,0 -3.705263,-0.426778 -5.12,-1.279999 C 9.271471,26.15699 8.5641026,25.112443 8.5641026,23.888696 V 10.280277 c 0,-1.9984844 0.7073684,-3.7052633 2.1221054,-5.1199996 1.414737,-1.4147363 3.12118,-2.1221048 5.12,-2.1221048 z"
   inkscape:connector-curvature="0"
   style="fill:#6fc4a9" /><path
   id="path3142"
   d="m 21.650418,15.282381 c -0.325389,0.336842 -0.712758,0.505264 -1.161768,0.505264 -0.471579,0 -0.876127,-0.168422 -1.212969,-0.505264 -0.314611,-0.314273 -0.471241,-0.695915 -0.471241,-1.145263 0,-0.449347 0.156968,-0.842105 0.471241,-1.178947 0.336842,-0.325727 0.741053,-0.488421 1.212969,-0.488421 0.44901,0 0.836379,0.162694 1.161768,0.488421 0.336842,0.336842 0.505263,0.729937 0.505263,1.178947 0,0.449011 -0.168421,0.83099 -0.505263,1.145263 z m -5.456842,-1.145263 c 0,0.449011 -0.16842,0.83099 -0.505263,1.145263 -0.325726,0.336842 -0.713095,0.505264 -1.162105,0.505264 -0.471579,0 -0.876126,-0.168422 -1.212968,-0.505264 -0.314273,-0.314273 -0.471241,-0.695915 -0.471241,-1.145263 0,-0.449347 0.157303,-0.842105 0.471241,-1.178947 0.336842,-0.325727 0.741052,-0.488421 1.212968,-0.488421 0.44901,0 0.836379,0.162694 1.162105,0.488421 0.336843,0.336842 0.505263,0.729937 0.505263,1.178947 z"
   inkscape:connector-curvature="0"
   style="fill:#347e67" /><path
   id="path3144"
   d="m 18.079892,17.084487 c 0.168421,0.16842 0.252631,0.370525 0.252631,0.606315 0,0.235789 -0.08421,0.432505 -0.252631,0.589474 -0.157305,0.168421 -0.353685,0.252632 -0.589474,0.252632 -0.23579,0 -0.437894,-0.08421 -0.606314,-0.252632 -0.157307,-0.156969 -0.23579,-0.353685 -0.23579,-0.589474 0,-0.23579 0.07849,-0.437895 0.23579,-0.606315 0.16842,-0.157306 0.370524,-0.23579 0.606314,-0.23579 0.235789,0 0.432169,0.07849 0.589474,0.23579 z"
   inkscape:connector-curvature="0"
   style="fill:#347e67" /><path
   id="path3146"
   d="m 22.509365,19.105539 c 1.335915,0.830989 2.453221,0.443285 3.351242,-1.162105 0.123621,-0.213221 0.292042,-0.353684 0.505263,-0.421053 0.224673,-0.05626 0.438231,-0.02796 0.64,0.08421 0.202106,0.123621 0.336841,0.292043 0.40421,0.505263 0.05625,0.213557 0.02796,0.42678 -0.08421,0.640001 -1.347369,2.470062 -3.435789,3.491704 -6.265599,3.065261 l -0.101054,-0.01684 1.550148,-2.694737 z M 9.2041032,18.061329 v 3.098946 c -1.5720429,-0.0448 -2.341053,0.853221 -2.3077057,2.694737 0,0.235789 -0.078484,0.437894 -0.2357894,0.606316 -0.1569683,0.168421 -0.3536842,0.252632 -0.5894735,0.252632 -0.2354527,0 -0.4378948,-0.07849 -0.6063159,-0.23579 C 5.3075136,24.320865 5.223303,24.124486 5.2121873,23.888696 5.1448183,21.070338 6.4416607,19.139223 9.102713,18.095013 l 0.1013902,-0.03369 z"
   inkscape:connector-curvature="0"
   style="fill:#6fc4a9" /><path
   id="path3148"
   d="m 15.806208,0.3097523 c 3.031579,0 5.625262,1.0721679 7.781052,3.2168409 2.133557,2.1332207 3.199999,4.7157887 3.199999,7.7473678 0,3.042693 -1.066442,5.636378 -3.199999,7.781052 -2.155452,2.133221 -4.749473,3.199999 -7.781052,3.199999 -3.031578,0 -5.614147,-1.066778 -7.7473682,-3.199999 -2.1557895,-2.144674 -3.2336841,-4.738359 -3.2336841,-7.781052 0,-3.0315791 1.0775577,-5.6141471 3.2336841,-7.7473678 C 10.192061,1.3819202 12.77463,0.3097523 15.806208,0.3097523 z m 0,1.6842099 c -2.559999,0 -4.743747,0.9094732 -6.5515794,2.7284203 -1.8303998,1.8078312 -2.7449257,3.9915789 -2.7449257,6.5515785 0,2.571114 0.9148633,4.766315 2.7449257,6.585263 1.8078324,1.807831 3.9919164,2.711578 6.5515794,2.711578 2.559662,0 4.754863,-0.904085 6.585262,-2.711578 1.807831,-1.818948 2.711579,-4.014149 2.711579,-6.585263 0,-2.5599996 -0.903748,-4.7437473 -2.711579,-6.5515785 C 20.561071,2.9034354 18.366207,1.9939622 15.806208,1.9939622 z"
   inkscape:connector-curvature="0"
   style="fill:#ffffff" /><path
   id="path3150"
   d="M 9.2546286,4.7223825 C 11.062461,2.9034354 13.246545,1.9939622 15.806208,1.9939622 c 2.559662,0 4.754863,0.9094732 6.585262,2.7284203 1.807831,1.8078312 2.711579,3.9915789 2.711579,6.5515785 0,2.571114 -0.903748,4.766315 -2.711579,6.585263 -1.830399,1.807831 -4.025263,2.711578 -6.585262,2.711578 -2.559999,0 -4.743747,-0.904085 -6.5515794,-2.711578 C 7.4242288,16.040276 6.5097029,13.845075 6.5097029,11.273961 6.5093661,8.7139614 7.4242288,6.5302137 9.2546286,4.7223825 z M 21.903049,10.027645 c 0.617769,-0.6174309 0.926316,-1.36421 0.926316,-2.2399998 0,-0.875789 -0.308547,-1.6222315 -0.926316,-2.2399995 -0.617431,-0.6288838 -1.36421,-0.943158 -2.239663,-0.943158 -0.876127,0 -1.622231,0.3142742 -2.24,0.943158 -0.628547,0.6174313 -0.943158,1.3642105 -0.943158,2.2399995 0,0.8757898 0.314611,1.6225689 0.943158,2.2399998 0.617769,0.617432 1.364211,0.926316 2.24,0.926316 0.875453,0 1.622232,-0.308884 2.239663,-0.926316 z"
   enable-background="new    "
   inkscape:connector-curvature="0"
   style="opacity:0.2;fill:#ffffff" /><path
   id="path3152"
   d="m 22.829365,7.7876452 c 0,0.8757898 -0.308547,1.6225689 -0.926316,2.2399998 -0.617431,0.617432 -1.36421,0.926316 -2.239663,0.926316 -0.876127,0 -1.622231,-0.308884 -2.24,-0.926316 -0.628547,-0.6174309 -0.943158,-1.36421 -0.943158,-2.2399998 0,-0.875789 0.314611,-1.6222315 0.943158,-2.2399995 0.617769,-0.6288838 1.364211,-0.943158 2.24,-0.943158 0.87579,0 1.622232,0.3142742 2.239663,0.943158 0.617769,0.6174313 0.926316,1.3642105 0.926316,2.2399995 z"
   enable-background="new    "
   inkscape:connector-curvature="0"
   style="opacity:0.30199998;fill:#ffffff" /></svg>